<svg width="10" height="10" viewBox="0 0 10 10" fill="none" xmlns="http://www.w3.org/2000/svg">
<g clip-path="url(#clip0_80_14)">
<path fill-rule="evenodd" clip-rule="evenodd" d="M4.73302 3.85348C4.64791 3.75972 4.6001 3.63256 4.6001 3.49998C4.6001 3.3674 4.64791 3.24024 4.73302 3.14648L6.09494 1.64648C6.13682 1.59872 6.18691 1.56063 6.2423 1.53443C6.29768 1.50822 6.35725 1.49443 6.41753 1.49385C6.47781 1.49328 6.53759 1.50593 6.59338 1.53107C6.64917 1.55621 6.69986 1.59334 6.74249 1.64028C6.78511 1.68723 6.81882 1.74305 6.84165 1.8045C6.86447 1.86595 6.87596 1.93179 6.87544 1.99818C6.87491 2.06457 6.86239 2.13018 6.8386 2.19118C6.8148 2.25218 6.78022 2.30736 6.73686 2.35348L5.37494 3.85348C5.2898 3.94721 5.17435 3.99987 5.05398 3.99987C4.9336 3.99987 4.81815 3.94721 4.73302 3.85348Z" fill="#CDC7C7"/>
<path fill-rule="evenodd" clip-rule="evenodd" d="M8.09856 3.85346C8.01343 3.94719 7.89798 3.99985 7.7776 3.99985C7.65723 3.99985 7.54178 3.94719 7.45664 3.85346L6.09472 2.35346C6.01203 2.25916 5.96627 2.13286 5.9673 2.00176C5.96834 1.87066 6.01608 1.74525 6.10025 1.65255C6.18442 1.55985 6.29828 1.50726 6.41731 1.50612C6.53635 1.50498 6.65102 1.55538 6.73664 1.64646L8.09856 3.14646C8.18367 3.24022 8.23148 3.36738 8.23148 3.49996C8.23148 3.63254 8.18367 3.7597 8.09856 3.85346Z" fill="#CDC7C7"/>
<path fill-rule="evenodd" clip-rule="evenodd" d="M6.41564 2.5C6.53604 2.5 6.65151 2.55268 6.73665 2.64645C6.82179 2.74021 6.86962 2.86739 6.86962 3V7C6.86962 7.13261 6.82179 7.25979 6.73665 7.35355C6.65151 7.44732 6.53604 7.5 6.41564 7.5C6.29524 7.5 6.17977 7.44732 6.09463 7.35355C6.0095 7.25979 5.96167 7.13261 5.96167 7V3C5.96167 2.86739 6.0095 2.74021 6.09463 2.64645C6.17977 2.55268 6.29524 2.5 6.41564 2.5ZM4.46673 6.1465C4.55184 6.24026 4.59965 6.36742 4.59965 6.5C4.59965 6.63258 4.55184 6.75974 4.46673 6.8535L3.10481 8.3535C3.01918 8.44458 2.90451 8.49498 2.78548 8.49384C2.66645 8.4927 2.55259 8.44011 2.46842 8.34741C2.38424 8.25471 2.3365 8.1293 2.33547 7.9982C2.33443 7.8671 2.38019 7.7408 2.46289 7.6465L3.82481 6.1465C3.90994 6.05276 4.02539 6.00011 4.14577 6.00011C4.26615 6.00011 4.3816 6.05276 4.46673 6.1465Z" fill="#CDC7C7"/>
<path fill-rule="evenodd" clip-rule="evenodd" d="M1.10118 6.14645C1.18631 6.05272 1.30176 6.00006 1.42214 6.00006C1.54252 6.00006 1.65797 6.05272 1.7431 6.14645L3.10502 7.64645C3.14838 7.69258 3.18297 7.74775 3.20676 7.80875C3.23055 7.86975 3.24307 7.93536 3.2436 8.00175C3.24412 8.06814 3.23264 8.13398 3.20981 8.19543C3.18698 8.25688 3.15327 8.31271 3.11065 8.35965C3.06802 8.4066 3.01734 8.44373 2.96155 8.46887C2.90575 8.49401 2.84597 8.50666 2.7857 8.50608C2.72542 8.5055 2.66585 8.49171 2.61046 8.4655C2.55507 8.4393 2.50498 8.40121 2.4631 8.35345L1.10118 6.85345C1.01607 6.75969 0.968262 6.63254 0.968262 6.49995C0.968262 6.36737 1.01607 6.24022 1.10118 6.14645Z" fill="#CDC7C7"/>
<path fill-rule="evenodd" clip-rule="evenodd" d="M2.78406 7.5C2.66366 7.5 2.54818 7.44732 2.46305 7.35355C2.37791 7.25979 2.33008 7.13261 2.33008 7V3C2.33008 2.86739 2.37791 2.74021 2.46305 2.64645C2.54818 2.55268 2.66366 2.5 2.78406 2.5C2.90446 2.5 3.01994 2.55268 3.10507 2.64645C3.19021 2.74021 3.23804 2.86739 3.23804 3V7C3.23804 7.13261 3.19021 7.25979 3.10507 7.35355C3.01994 7.44732 2.90446 7.5 2.78406 7.5Z" fill="#CDC7C7"/>
</g>
<defs>
<clipPath id="clip0_80_14">
<rect width="9.07949" height="10" fill="white" transform="translate(0.0600586)"/>
</clipPath>
</defs>
</svg>
