<svg width="37" height="38" viewBox="0 0 37 38" fill="none" xmlns="http://www.w3.org/2000/svg">
<rect width="37" height="38" rx="10" fill="#249479"/>
<path d="M20.0001 19V26.88C20.0401 27.18 19.9401 27.5 19.7101 27.71C19.6176 27.8027 19.5077 27.8762 19.3868 27.9264C19.2658 27.9766 19.1361 28.0024 19.0051 28.0024C18.8742 28.0024 18.7445 27.9766 18.6235 27.9264C18.5025 27.8762 18.3926 27.8027 18.3001 27.71L16.2901 25.7C16.1811 25.5933 16.0982 25.4629 16.0479 25.319C15.9976 25.175 15.9813 25.0213 16.0001 24.87V19H15.9701L10.2101 11.62C10.0477 11.4115 9.97446 11.1473 10.0063 10.8849C10.0382 10.6226 10.1726 10.3835 10.3801 10.22C10.5701 10.08 10.7801 10 11.0001 10H25.0001C25.2201 10 25.4301 10.08 25.6201 10.22C25.8277 10.3835 25.9621 10.6226 25.9939 10.8849C26.0258 11.1473 25.9525 11.4115 25.7901 11.62L20.0301 19H20.0001Z" fill="white"/>
</svg>
