<svg width="32" height="32" viewBox="0 0 32 32" fill="none" xmlns="http://www.w3.org/2000/svg">
<path d="M16.0889 9.77783C12.6223 9.77783 9.8667 12.5334 9.8667 16.0001C9.8667 19.4667 12.6223 22.2223 16.0889 22.2223C19.5556 22.2223 22.3111 19.4667 22.3111 16.0001C22.3111 12.5334 19.5556 9.77783 16.0889 9.77783ZM16.0889 20.4445C13.6 20.4445 11.6445 18.4889 11.6445 16.0001C11.6445 13.5112 13.6 11.5556 16.0889 11.5556C18.5778 11.5556 20.5334 13.5112 20.5334 16.0001C20.5334 18.4889 18.5778 20.4445 16.0889 20.4445Z" fill="#249479"/>
<path d="M29.1556 13.0667L26.6667 12.2667L26.1334 10.9334L27.3778 8.62228C27.6445 8.08894 27.5556 7.37783 27.1112 6.93339L24.9778 4.80005C24.5334 4.35561 23.8223 4.26672 23.2889 4.53339L20.9778 5.77783L19.6445 5.2445L18.8445 2.75561C18.6667 2.22228 18.1334 1.77783 17.5112 1.77783H14.4889C13.8667 1.77783 13.3334 2.22228 13.2445 2.8445L12.4445 5.33339C11.9112 5.42228 11.4667 5.60005 11.0223 5.86672L8.71117 4.62228C8.17783 4.35561 7.46672 4.4445 7.02228 4.88894L4.88894 7.02228C4.4445 7.46672 4.35561 8.17783 4.62228 8.71117L5.77783 10.9334C5.60005 11.3778 5.42228 11.9112 5.2445 12.3556L2.75561 13.1556C2.22228 13.3334 1.77783 13.8667 1.77783 14.4889V17.5112C1.77783 18.1334 2.22228 18.6667 2.8445 18.8445L5.33339 19.6445L5.86672 20.9778L4.62228 23.2889C4.35561 23.8223 4.4445 24.5334 4.88894 24.9778L7.02228 27.1112C7.46672 27.5556 8.17783 27.6445 8.71117 27.3778L11.0223 26.1334L12.3556 26.6667L13.1556 29.2445C13.3334 29.7778 13.8667 30.2223 14.4889 30.2223H17.5112C18.1334 30.2223 18.6667 29.7778 18.8445 29.2445L19.6445 26.6667L20.9778 26.1334L23.2889 27.3778C23.8223 27.6445 24.5334 27.5556 24.9778 27.1112L27.1112 24.9778C27.5556 24.5334 27.6445 23.8223 27.3778 23.2889L26.1334 20.9778L26.6667 19.6445L29.2445 18.8445C29.7778 18.6667 30.2223 18.1334 30.2223 17.5112V14.4889C30.2223 13.8667 29.7778 13.2445 29.1556 13.0667ZM28.4445 17.2445L25.2445 18.2223L25.1556 18.6667L24.3556 20.5334L24.0889 20.9778L25.6889 23.9112L23.9112 25.6889L20.9778 24.0889L20.5334 24.3556C19.9112 24.7112 19.2889 24.9778 18.6667 25.1556L18.2223 25.2445L17.2445 28.4445H14.7556L13.7778 25.2445L13.3334 25.1556L11.4667 24.3556L11.0223 24.0889L8.08894 25.6889L6.31117 23.9112L7.91117 20.9778L7.6445 20.5334C7.28894 19.9112 7.02228 19.2889 6.8445 18.6667L6.75561 18.2223L3.55561 17.2445V14.7556L6.57783 13.8667L6.75561 13.4223C6.93339 12.7112 7.20005 12.0889 7.55561 11.4667L7.82228 11.0223L6.31117 8.08894L8.08894 6.31117L10.9334 7.91117L11.3778 7.6445C12.0001 7.28894 12.6223 7.02228 13.3334 6.8445L13.7778 6.66672L14.7556 3.55561H17.2445L18.2223 6.66672L18.6667 6.8445C19.2889 7.02228 19.9112 7.28894 20.5334 7.6445L20.9778 7.91117L23.9112 6.31117L25.6889 8.08894L24.0889 11.0223L24.3556 11.4667C24.7112 12.0889 24.9778 12.7112 25.1556 13.3334L25.2445 13.7778L28.4445 14.7556V17.2445Z" fill="#249479"/>
</svg>
