<svg width="26" height="28" viewBox="0 0 26 28" fill="none" xmlns="http://www.w3.org/2000/svg">
<path d="M24.96 6.26877L13.96 0.250022C13.6661 0.0876253 13.3358 0.00244141 13 0.00244141C12.6642 0.00244141 12.3339 0.0876253 12.04 0.250022L1.04 6.27127C0.725861 6.44315 0.463629 6.69622 0.28069 7.00405C0.0977502 7.31188 0.000812822 7.66319 0 8.02127V19.9763C0.000812822 20.3344 0.0977502 20.6857 0.28069 20.9935C0.463629 21.3013 0.725861 21.5544 1.04 21.7263L12.04 27.7475C12.3339 27.9099 12.6642 27.9951 13 27.9951C13.3358 27.9951 13.6661 27.9099 13.96 27.7475L24.96 21.7263C25.2741 21.5544 25.5364 21.3013 25.7193 20.9935C25.9023 20.6857 25.9992 20.3344 26 19.9763V8.02252C25.9999 7.6638 25.9032 7.31172 25.7203 7.00317C25.5373 6.69462 25.2747 6.44096 24.96 6.26877ZM13 2.00002L23.0425 7.50002L19.3213 9.53752L9.2775 4.03752L13 2.00002ZM13 13L2.9575 7.50002L7.195 5.18002L17.2375 10.68L13 13ZM2 9.25002L12 14.7225V25.4463L2 19.9775V9.25002ZM24 19.9725L14 25.4463V14.7275L18 12.5388V17C18 17.2652 18.1054 17.5196 18.2929 17.7071C18.4804 17.8947 18.7348 18 19 18C19.2652 18 19.5196 17.8947 19.7071 17.7071C19.8946 17.5196 20 17.2652 20 17V11.4438L24 9.25002V19.9713V19.9725Z" fill="#249479"/>
</svg>
