<svg width="30" height="21" viewBox="0 0 30 21" fill="none" xmlns="http://www.w3.org/2000/svg">
<path d="M29.9275 7.625L28.1775 3.25C28.029 2.87984 27.7728 2.56279 27.4421 2.33992C27.1114 2.11705 26.7213 1.99863 26.3225 2H22V1C22 0.734784 21.8946 0.48043 21.7071 0.292893C21.5196 0.105357 21.2652 0 21 0H2C1.46957 0 0.960859 0.210714 0.585786 0.585786C0.210714 0.960859 0 1.46957 0 2V16C0 16.5304 0.210714 17.0391 0.585786 17.4142C0.960859 17.7893 1.46957 18 2 18H4.125C4.3453 18.8604 4.8457 19.623 5.54731 20.1676C6.24892 20.7122 7.11183 21.0078 8 21.0078C8.88817 21.0078 9.75108 20.7122 10.4527 20.1676C11.1543 19.623 11.6547 18.8604 11.875 18H18.125C18.3453 18.8604 18.8457 19.623 19.5473 20.1676C20.2489 20.7122 21.1118 21.0078 22 21.0078C22.8882 21.0078 23.7511 20.7122 24.4527 20.1676C25.1543 19.623 25.6547 18.8604 25.875 18H28C28.5304 18 29.0391 17.7893 29.4142 17.4142C29.7893 17.0391 30 16.5304 30 16V8C30.0003 7.87149 29.9757 7.74413 29.9275 7.625ZM22 4H26.3225L27.5225 7H22V4ZM2 2H20V10H2V2ZM8 19C7.60444 19 7.21776 18.8827 6.88886 18.6629C6.55996 18.4432 6.30362 18.1308 6.15224 17.7654C6.00087 17.3999 5.96126 16.9978 6.03843 16.6098C6.1156 16.2219 6.30608 15.8655 6.58579 15.5858C6.86549 15.3061 7.22186 15.1156 7.60982 15.0384C7.99778 14.9613 8.39991 15.0009 8.76537 15.1522C9.13082 15.3036 9.44318 15.56 9.66294 15.8889C9.8827 16.2178 10 16.6044 10 17C10 17.5304 9.78929 18.0391 9.41421 18.4142C9.03914 18.7893 8.53043 19 8 19ZM18.125 16H11.875C11.6547 15.1396 11.1543 14.377 10.4527 13.8324C9.75108 13.2878 8.88817 12.9922 8 12.9922C7.11183 12.9922 6.24892 13.2878 5.54731 13.8324C4.8457 14.377 4.3453 15.1396 4.125 16H2V12H20V13.5387C19.5402 13.8045 19.1377 14.159 18.8158 14.5814C18.4939 15.0039 18.2591 15.4861 18.125 16ZM22 19C21.6044 19 21.2178 18.8827 20.8889 18.6629C20.56 18.4432 20.3036 18.1308 20.1522 17.7654C20.0009 17.3999 19.9613 16.9978 20.0384 16.6098C20.1156 16.2219 20.3061 15.8655 20.5858 15.5858C20.8655 15.3061 21.2219 15.1156 21.6098 15.0384C21.9978 14.9613 22.3999 15.0009 22.7654 15.1522C23.1308 15.3036 23.4432 15.56 23.6629 15.8889C23.8827 16.2178 24 16.6044 24 17C24 17.5304 23.7893 18.0391 23.4142 18.4142C23.0391 18.7893 22.5304 19 22 19ZM28 16H25.875C25.6521 15.1417 25.1507 14.3815 24.4495 13.8387C23.7483 13.2958 22.8868 13.0008 22 13V9H28V16Z" fill="#249479"/>
</svg>
