<svg width="17" height="17" viewBox="0 0 17 17" fill="none" xmlns="http://www.w3.org/2000/svg">
<g clip-path="url(#clip0_80_69)">
<path d="M8.50014 1.41666C7.18511 1.41666 5.92394 1.93905 4.99407 2.86892C4.0642 3.79879 3.54181 5.05996 3.54181 6.37499V8.87399C3.54191 8.98387 3.51645 9.09227 3.46744 9.19061L2.25123 11.6223C2.19182 11.7411 2.16376 11.8731 2.16973 12.0058C2.1757 12.1385 2.21549 12.2675 2.28533 12.3805C2.35517 12.4935 2.45273 12.5867 2.56875 12.6514C2.68477 12.7161 2.8154 12.75 2.94823 12.75H14.0521C14.1849 12.75 14.3155 12.7161 14.4315 12.6514C14.5476 12.5867 14.6451 12.4935 14.715 12.3805C14.7848 12.2675 14.8246 12.1385 14.8306 12.0058C14.8365 11.8731 14.8085 11.7411 14.7491 11.6223L13.5336 9.19061C13.4843 9.09233 13.4586 8.98393 13.4585 8.87399V6.37499C13.4585 5.05996 12.9361 3.79879 12.0062 2.86892C11.0763 1.93905 9.81518 1.41666 8.50014 1.41666ZM8.50014 14.875C8.06054 14.8751 7.63171 14.7389 7.27271 14.4852C6.91371 14.2315 6.64219 13.8728 6.49556 13.4583H10.5047C10.3581 13.8728 10.0866 14.2315 9.72758 14.4852C9.36858 14.7389 8.93975 14.8751 8.50014 14.875Z" fill="#919191"/>
</g>
<defs>
<clipPath id="clip0_80_69">
<rect width="17" height="17" fill="white"/>
</clipPath>
</defs>
</svg>
